# xmcd
#
# Track frame offsets:
#	150
#	25428
#	37296
#	55854
#	73136
#	88424
#	102367
#	111826
#	133527
#	146873
#
# Disc length: 2244 seconds
#
# Revision: 0
# Processed by: cddbd v1.5.1PL0 Copyright (c) Steve Scherf et al.
# Submitted via: dBpowerAMP V4.0
#
DISCID=9e08c20a
DTITLE=Fenton Robinson - Night Flight
DYEAR=1900
DGENRE=Blues
TTITLE0=I Found Out Yesterday
TTITLE1=Slow Walking
TTITLE2=Can't Hold Out Much Longer
TTITLE3=Nightflight
TTITLE4=The Feeling Is Gone
TTITLE5=Laundry Man
TTITLE6=Crazy Crazy Lovin'
TTITLE7=I Lost My True Love
TTITLE8=Schoolboy
TTITLE9=Sinner's Prayer
EXTD=
EXTT0=
EXTT1=
EXTT2=
EXTT3=
EXTT4=
EXTT5=
EXTT6=
EXTT7=
EXTT8=
EXTT9=
PLAYORDER=
